<svg xmlns="http://www.w3.org/2000/svg" width="19" height="17.944" viewBox="0 0 19 17.944">
  <g id="Group_262" data-name="Group 262" transform="translate(-648 -817.552)">
    <path id="Path_317" data-name="Path 317" d="M651.708,831.916h.8V825.5h-.8a3.208,3.208,0,0,0-3.208,3.208h0A3.208,3.208,0,0,0,651.708,831.916Z" transform="translate(0 -2.091)" fill="#fff" stroke="#003468" stroke-linecap="round" stroke-linejoin="round" stroke-width="1"/>
    <path id="Path_318" data-name="Path 318" d="M667.3,831.916h-.8V825.5h.8a3.208,3.208,0,0,1,3.208,3.208h0A3.208,3.208,0,0,1,667.3,831.916Z" transform="translate(-4.01 -2.091)" fill="#fff" stroke="#003468" stroke-linecap="round" stroke-linejoin="round" stroke-width="1"/>
    <path id="Path_319" data-name="Path 319" d="M652.5,821.856v-.893c0-2.465,2.546-4.464,5.686-4.464h0c3.14,0,5.686,2,5.686,4.464v.893" transform="translate(-0.691 1.552)" fill="none" stroke="#003468" stroke-linecap="round" stroke-linejoin="round" stroke-width="1"/>
    <path id="Path_320" data-name="Path 320" d="M667.5,833.5a3.663,3.663,0,0,1-4,4" transform="translate(-5.01 -3.675)" fill="none" stroke="#003468" stroke-linecap="round" stroke-linejoin="round" stroke-width="1"/>
    <path id="Path_321" data-name="Path 321" d="M661.033,838.671h-1.447a1.086,1.086,0,0,1-1.086-1.086h0a1.086,1.086,0,0,1,1.086-1.086h1.447a1.086,1.086,0,0,1,1.086,1.086h0A1.086,1.086,0,0,1,661.033,838.671Z" transform="translate(-3.625 -3.675)" fill="#fff" stroke="#003468" stroke-linecap="round" stroke-linejoin="round" stroke-width="1"/>
  </g>
</svg>
