<svg xmlns="http://www.w3.org/2000/svg" width="19.005" height="14.242" viewBox="0 0 19.005 14.242">
  <g id="Group_264" data-name="Group 264" transform="translate(-48.089 -915.734)">
    <path id="Path_327" data-name="Path 327" d="M65.247,917.7a2.4,2.4,0,0,1-4.747,0v-1.164a2.4,2.4,0,0,1,4.747,0Z" transform="translate(-2.535 1.734)" fill="none" stroke="#4c4c4c" stroke-linecap="round" stroke-linejoin="round" stroke-width="1"/>
    <circle id="Ellipse_20" data-name="Ellipse 20" cx="1.978" cy="1.978" r="1.978" transform="translate(52.063 916.234)" fill="none" stroke="#4c4c4c" stroke-linecap="round" stroke-linejoin="round" stroke-width="1"/>
    <path id="Path_328" data-name="Path 328" d="M56.049,925.4a4.747,4.747,0,0,0-7.443,2.935.783.783,0,0,0,.783.91h3.877" transform="translate(0 -2.132)" fill="none" stroke="#4c4c4c" stroke-linecap="round" stroke-linejoin="round" stroke-width="1"/>
    <path id="Path_329" data-name="Path 329" d="M61.844,925.5h0a6.331,6.331,0,0,0-6.266,5.43.8.8,0,0,0,.79.9H67.32a.8.8,0,0,0,.79-.9A6.331,6.331,0,0,0,61.844,925.5Z" transform="translate(-1.526 -2.354)" fill="none" stroke="#4c4c4c" stroke-linecap="round" stroke-linejoin="round" stroke-width="1"/>
  </g>
</svg>
